<svg data-v-fde0c5aa="" xmlns="http://www.w3.org/2000/svg" viewBox="0 0 300 300" class="iconAbove"><!----><defs data-v-fde0c5aa=""><!----></defs><rect data-v-fde0c5aa="" fill="transparent" x="0" y="0" width="300px" height="300px" class="logo-background-square"></rect><defs data-v-fde0c5aa=""><!----></defs><g data-v-fde0c5aa="" id="2362714a-da33-44be-89ce-10c7239fcfaf" fill="#2e3034" transform="matrix(1.2266464982282428,0,0,1.2266464982282428,18.834685768192106,162.9252682679108)"><path d="M4.02 14.52C6.15 14.52 7.20 13.43 7.20 11.82C7.20 10.58 6.55 9.70 4.65 9.20L3.74 8.95C2.52 8.62 1.57 8.13 1.57 6.83C1.57 5.53 2.45 4.79 4.06 4.79C5.63 4.79 6.55 5.49 6.55 6.52L6.55 7.41L7.03 7.41L7.03 4.58L6.55 4.58L6.55 5.53L6.50 5.53C6.23 4.98 5.50 4.41 4.06 4.41C2.24 4.41 1.05 5.28 1.05 6.89C1.05 8.15 1.74 8.97 3.61 9.48L4.54 9.73C5.71 10.04 6.68 10.53 6.68 11.91C6.68 13.31 5.80 14.14 3.95 14.14C2.07 14.14 1.43 13.29 1.43 12.21L1.43 11.38L0.95 11.38L0.95 14.35L1.43 14.35L1.43 13.33L1.48 13.33C1.78 13.94 2.44 14.52 4.02 14.52ZM12.01 14.15C10.39 14.15 9.53 13.01 9.53 11.24L9.53 10.35C9.53 8.58 10.39 7.43 12.01 7.43C13.64 7.43 14.49 8.58 14.49 10.35L14.49 11.24C14.49 13.01 13.64 14.15 12.01 14.15ZM12.01 14.52C13.92 14.52 15.08 13.20 15.08 10.79C15.08 8.39 13.92 7.07 12.01 7.07C10.11 7.07 8.95 8.39 8.95 10.79C8.95 13.20 10.11 14.52 12.01 14.52ZM19.78 14.52C21.03 14.52 21.71 13.89 21.95 13.22L22.01 13.22L22.01 14.46L23.67 14.25L23.67 14L22.51 13.90L22.51 7.13L20.83 7.34L20.83 7.59L21.99 7.69L21.99 12.33C21.99 13.55 21 14.13 19.92 14.13C18.59 14.13 17.91 13.38 17.91 11.76L17.91 7.13L16.23 7.34L16.23 7.59L17.39 7.69L17.39 11.83C17.39 13.61 18.14 14.52 19.78 14.52ZM26.56 14.39C27.02 14.39 27.89 14.34 28.29 14.27L28.29 13.99L26.32 13.99L26.32 7.60L28.29 7.60L28.29 7.24L26.32 7.24L26.32 5.25L25.97 5.25L25.84 6.65C25.80 7.07 25.65 7.24 25.07 7.24L24.81 7.24L24.81 7.60L25.80 7.60L25.80 13.73C25.80 14.21 25.97 14.39 26.56 14.39ZM29.15 14.35L31.99 14.35L31.99 14L30.83 14L30.83 9.25C30.83 8.04 31.82 7.46 32.90 7.46C34.23 7.46 34.92 8.20 34.92 9.83L34.92 14L33.75 14L33.75 14.35L36.60 14.35L36.60 14L35.43 14L35.43 9.76C35.43 7.98 34.68 7.07 33.04 7.07C31.78 7.07 31.12 7.70 30.87 8.37L30.83 8.37L30.83 3.64L29.15 3.85L29.15 4.10L30.31 4.20L30.31 14L29.15 14ZM40.91 14.52C42.35 14.52 43.19 13.62 43.58 12.82L43.32 12.67C42.90 13.43 42.17 14.10 40.95 14.10C39.44 14.10 38.39 13.05 38.39 11.07L38.39 10.56L43.74 10.56L43.74 10.37C43.74 8.44 42.64 7.07 40.91 7.07C39.07 7.07 37.81 8.36 37.81 10.79C37.81 13.23 39.07 14.52 40.91 14.52ZM38.39 10.22C38.39 8.57 39.37 7.42 40.91 7.42C42.36 7.42 43.18 8.60 43.18 10.19L43.18 10.22ZM45.11 14.35L48.23 14.35L48.23 14L46.79 14L46.79 9.30C46.79 8.34 47.81 7.36 48.68 7.36C48.72 7.36 48.97 7.36 49.00 7.38L49.00 7.41C48.89 7.43 48.76 7.60 48.76 7.81C48.76 8.08 48.96 8.26 49.25 8.26C49.53 8.26 49.73 8.08 49.73 7.76C49.73 7.31 49.41 7.07 48.83 7.07C47.74 7.07 47.08 7.83 46.83 8.50L46.77 8.50L46.77 7.13L45.11 7.34L45.11 7.59L46.27 7.69L46.27 14L45.11 14ZM50.55 14.35L53.40 14.35L53.40 14L52.23 14L52.23 9.25C52.23 8.04 53.23 7.46 54.31 7.46C55.64 7.46 56.32 8.20 56.32 9.83L56.32 14L55.16 14L55.16 14.35L58.00 14.35L58.00 14L56.84 14L56.84 9.76C56.84 7.98 56.08 7.07 54.45 7.07C53.20 7.07 52.51 7.70 52.28 8.37L52.22 8.37L52.22 7.13L50.55 7.34L50.55 7.59L51.72 7.69L51.72 14L50.55 14ZM65.70 14.52C67.83 14.52 68.88 13.43 68.88 11.82C68.88 10.58 68.24 9.70 66.33 9.20L65.42 8.95C64.20 8.62 63.25 8.13 63.25 6.83C63.25 5.53 64.13 4.79 65.74 4.79C67.31 4.79 68.24 5.49 68.24 6.52L68.24 7.41L68.71 7.41L68.71 4.58L68.24 4.58L68.24 5.53L68.18 5.53C67.91 4.98 67.19 4.41 65.74 4.41C63.92 4.41 62.73 5.28 62.73 6.89C62.73 8.15 63.42 8.97 65.30 9.48L66.22 9.73C67.40 10.04 68.36 10.53 68.36 11.91C68.36 13.31 67.48 14.14 65.63 14.14C63.76 14.14 63.11 13.29 63.11 12.21L63.11 11.38L62.64 11.38L62.64 14.35L63.11 14.35L63.11 13.33L63.17 13.33C63.46 13.94 64.12 14.52 65.70 14.52ZM70.28 14.35L73.12 14.35L73.12 14L71.96 14L71.96 11.80L73.25 10.53L75.94 14L74.91 14L74.91 14.35L77.42 14.35L77.42 14L76.54 14L73.60 10.18L76.09 7.59L77.04 7.59L77.04 7.24L74.47 7.24L74.47 7.59L75.56 7.59L73.23 10.05L72.00 11.34L71.96 11.34L71.96 3.64L70.28 3.85L70.28 4.10L71.44 4.20L71.44 14L70.28 14ZM79.62 5.11C79.93 5.11 80.09 4.90 80.09 4.66L80.09 4.62C80.09 4.38 79.93 4.17 79.63 4.17C79.32 4.17 79.16 4.38 79.16 4.62L79.16 4.66C79.16 4.90 79.32 5.11 79.62 5.11ZM78.20 14.35L81.05 14.35L81.05 14L79.88 14L79.88 7.13L78.20 7.34L78.20 7.59L79.37 7.69L79.37 14L78.20 14ZM85.41 14.52C86.86 14.52 87.70 13.62 88.09 12.82L87.82 12.67C87.40 13.43 86.67 14.10 85.46 14.10C83.94 14.10 82.89 13.05 82.89 11.07L82.89 10.56L88.24 10.56L88.24 10.37C88.24 8.44 87.15 7.07 85.41 7.07C83.58 7.07 82.32 8.36 82.32 10.79C82.32 13.23 83.58 14.52 85.41 14.52ZM82.89 10.22C82.89 8.57 83.87 7.42 85.41 7.42C86.87 7.42 87.68 8.60 87.68 10.19L87.68 10.22ZM92.34 14.52C93.86 14.52 94.78 13.76 94.78 12.54C94.78 11.35 94.04 10.82 92.74 10.54L92.08 10.40C91.04 10.16 90.45 9.79 90.45 8.82C90.45 7.90 91.17 7.43 92.30 7.43C93.45 7.43 94.16 7.90 94.16 8.82L94.16 9.30L94.60 9.30L94.60 7.24L94.16 7.24L94.16 7.95L94.12 7.95C93.91 7.49 93.30 7.07 92.26 7.07C90.92 7.07 89.96 7.71 89.96 8.89C89.96 10.12 90.73 10.63 91.98 10.91L92.65 11.05C93.73 11.28 94.29 11.68 94.29 12.61C94.29 13.61 93.53 14.15 92.29 14.15C91.13 14.15 90.30 13.68 90.30 12.74L90.30 12.29L89.87 12.29L89.87 14.35L90.30 14.35L90.30 13.58L90.36 13.58C90.62 14.07 91.25 14.52 92.34 14.52ZM99.68 14.35L103.47 14.35C106.23 14.35 107.70 12.71 107.70 9.46C107.70 6.22 106.23 4.58 103.47 4.58L99.68 4.58L99.68 4.93L100.84 4.93L100.84 14L99.68 14ZM101.39 4.94L103.46 4.94C105.92 4.94 107.10 6.52 107.10 8.92L107.10 10.01C107.10 12.40 105.92 13.99 103.46 13.99L101.39 13.99ZM112.43 14.52C113.88 14.52 114.72 13.62 115.11 12.82L114.84 12.67C114.42 13.43 113.69 14.10 112.48 14.10C110.96 14.10 109.91 13.05 109.91 11.07L109.91 10.56L115.26 10.56L115.26 10.37C115.26 8.44 114.17 7.07 112.43 7.07C110.60 7.07 109.34 8.36 109.34 10.79C109.34 13.23 110.60 14.52 112.43 14.52ZM109.91 10.22C109.91 8.57 110.89 7.42 112.43 7.42C113.89 7.42 114.70 8.60 114.70 10.19L114.70 10.22ZM116.63 14.35L119.76 14.35L119.76 14L118.31 14L118.31 9.30C118.31 8.34 119.34 7.36 120.20 7.36C120.25 7.36 120.50 7.36 120.53 7.38L120.53 7.41C120.41 7.43 120.29 7.60 120.29 7.81C120.29 8.08 120.48 8.26 120.78 8.26C121.06 8.26 121.25 8.08 121.25 7.76C121.25 7.31 120.93 7.07 120.36 7.07C119.27 7.07 118.61 7.83 118.36 8.50L118.30 8.50L118.30 7.13L116.63 7.34L116.63 7.59L117.80 7.69L117.80 14L116.63 14ZM122.08 14.35L124.92 14.35L124.92 14L123.76 14L123.76 9.25C123.76 8.05 124.73 7.46 125.80 7.46C127.11 7.46 127.79 8.20 127.79 9.83L127.79 14L126.63 14L126.63 14.35L129.47 14.35L129.47 14L128.31 14L128.31 9.25C128.31 8.05 129.28 7.46 130.35 7.46C131.66 7.46 132.34 8.20 132.34 9.83L132.34 14L131.18 14L131.18 14.35L134.02 14.35L134.02 14L132.86 14L132.86 9.77C132.86 7.98 132.10 7.07 130.49 7.07C129.21 7.07 128.49 7.76 128.20 8.64L128.16 8.64C127.86 7.56 127.13 7.07 125.94 7.07C124.70 7.07 124.04 7.70 123.80 8.37L123.75 8.37L123.75 7.13L122.08 7.34L122.08 7.59L123.24 7.69L123.24 14L122.08 14ZM137.48 14.52C138.85 14.52 139.50 13.79 139.75 13.15L139.79 13.15L139.79 13.73C139.79 14.27 140.01 14.46 140.53 14.46C140.81 14.46 141.22 14.39 141.40 14.31L141.40 14.04L140.28 14.04L140.28 9.25C140.28 7.84 139.36 7.07 137.90 7.07C136.53 7.07 135.55 7.67 135.55 8.29C135.55 8.60 135.73 8.76 136.01 8.76C136.30 8.76 136.49 8.60 136.49 8.30C136.49 8.06 136.33 7.90 136.14 7.81L136.14 7.78C136.43 7.57 136.96 7.42 137.80 7.42C139.06 7.42 139.76 8.06 139.76 9.32L139.76 10.56L138.33 10.56C136.11 10.56 135.24 11.24 135.24 12.61C135.24 13.76 136.08 14.52 137.48 14.52ZM137.61 14.14C136.46 14.14 135.80 13.55 135.80 12.75L135.80 12.43C135.80 11.42 136.44 10.86 138.43 10.86L139.76 10.86L139.76 12.33C139.76 13.37 138.84 14.14 137.61 14.14ZM144.19 14.39C144.65 14.39 145.52 14.34 145.92 14.27L145.92 13.99L143.95 13.99L143.95 7.60L145.92 7.60L145.92 7.24L143.95 7.24L143.95 5.25L143.60 5.25L143.47 6.65C143.43 7.07 143.28 7.24 142.70 7.24L142.44 7.24L142.44 7.60L143.43 7.60L143.43 13.73C143.43 14.21 143.60 14.39 144.19 14.39ZM150.19 14.15C148.57 14.15 147.71 13.01 147.71 11.24L147.71 10.35C147.71 8.58 148.57 7.43 150.19 7.43C151.82 7.43 152.67 8.58 152.67 10.35L152.67 11.24C152.67 13.01 151.82 14.15 150.19 14.15ZM150.19 14.52C152.10 14.52 153.26 13.20 153.26 10.79C153.26 8.39 152.10 7.07 150.19 7.07C148.29 7.07 147.13 8.39 147.13 10.79C147.13 13.20 148.29 14.52 150.19 14.52ZM154.48 14.35L157.32 14.35L157.32 14L156.16 14L156.16 3.64L154.48 3.85L154.48 4.10L155.64 4.20L155.64 14L154.48 14ZM161.60 14.15C159.98 14.15 159.12 13.01 159.12 11.24L159.12 10.35C159.12 8.58 159.98 7.43 161.60 7.43C163.23 7.43 164.08 8.58 164.08 10.35L164.08 11.24C164.08 13.01 163.23 14.15 161.60 14.15ZM161.60 14.52C163.51 14.52 164.67 13.20 164.67 10.79C164.67 8.39 163.51 7.07 161.60 7.07C159.70 7.07 158.54 8.39 158.54 10.79C158.54 13.20 159.70 14.52 161.60 14.52ZM169.09 17.32C171.30 17.32 172.54 16.60 172.54 15.20C172.54 14.14 171.82 13.48 170.20 13.48L168.35 13.48C167.41 13.48 167.13 13.16 167.13 12.74C167.13 12.24 167.62 11.86 168.35 11.72C168.59 11.77 168.84 11.80 169.12 11.80C170.60 11.80 171.64 10.89 171.64 9.44C171.64 8.88 171.49 8.44 171.28 8.11C171.28 7.43 171.29 7.00 171.36 6.82L171.40 6.82C171.43 7.03 171.57 7.20 171.81 7.20C172.07 7.20 172.26 7.03 172.26 6.76C172.26 6.50 172.07 6.31 171.79 6.31C171.29 6.31 171.02 6.79 171.01 7.80C170.59 7.34 169.93 7.07 169.12 7.07C167.64 7.07 166.60 7.98 166.60 9.44C166.60 10.47 167.12 11.24 167.96 11.58L167.96 11.62C167.33 11.79 166.73 12.18 166.73 12.85C166.73 13.34 167.01 13.72 167.54 13.87L167.54 13.92C166.71 14.14 166.08 14.70 166.08 15.51C166.08 16.60 166.95 17.32 169.09 17.32ZM169.12 11.47C167.86 11.47 167.16 10.70 167.16 9.70L167.16 9.17C167.16 8.18 167.86 7.41 169.12 7.41C170.38 7.41 171.08 8.18 171.08 9.17L171.08 9.70C171.08 10.70 170.38 11.47 169.12 11.47ZM166.59 15.51C166.59 14.71 167.09 14.24 167.90 13.99L170.11 13.99C171.56 13.99 172.05 14.46 172.05 15.27C172.05 16.41 171.00 16.95 169.46 16.95L168.77 16.95C167.43 16.95 166.59 16.39 166.59 15.51ZM174.68 17.32C175.53 17.32 176.09 16.69 176.55 15.46L179.54 7.59L180.25 7.59L180.25 7.24L177.77 7.24L177.77 7.59L179.12 7.59L176.85 13.78L176.81 13.78L174.51 7.59L175.85 7.59L175.85 7.24L173.24 7.24L173.24 7.59L173.95 7.59L176.55 14.46L176.20 15.39C175.78 16.51 175.32 17.04 174.66 17.04C174.50 17.04 174.33 17.02 174.20 16.98L174.20 16.95C174.38 16.88 174.54 16.73 174.54 16.51C174.54 16.24 174.36 16.06 174.09 16.06C173.80 16.06 173.61 16.24 173.61 16.53C173.61 16.93 173.92 17.32 174.68 17.32ZM184.32 14.35L191.14 14.35L191.14 12.17L190.67 12.17L190.67 13.99L186.03 13.99L186.03 9.41L189.49 9.41L189.49 10.58L189.92 10.58L189.92 7.87L189.49 7.87L189.49 9.04L186.03 9.04L186.03 4.94L190.55 4.94L190.55 6.72L191.03 6.72L191.03 4.58L184.32 4.58L184.32 4.93L185.49 4.93L185.49 14L184.32 14ZM192.70 14.35L195.45 14.35L195.45 14L194.29 14L194.29 5.18L194.33 5.18L195.54 7.28L197.93 11.47L200.41 7.18L201.57 5.17L201.61 5.17L201.61 14L200.45 14L200.45 14.35L203.32 14.35L203.32 14L202.16 14L202.16 4.93L203.32 4.93L203.32 4.58L201.47 4.58L198.04 10.51L197.99 10.51L194.59 4.58L192.70 4.58L192.70 4.93L193.86 4.93L193.86 14L192.70 14ZM204.75 14.35L207.62 14.35L207.62 14L206.46 14L206.46 9.74L208.82 9.74L210.69 13.26C211.06 13.97 211.57 14.35 212.41 14.35L212.91 14.35L212.91 14L212.63 14C212.00 14 211.51 13.68 211.19 13.08L209.38 9.70C210.97 9.63 211.81 8.65 211.81 7.14C211.81 5.54 210.90 4.58 209.26 4.58L204.75 4.58L204.75 4.93L205.91 4.93L205.91 14L204.75 14ZM206.46 4.94L209.23 4.94C210.55 4.94 211.22 5.85 211.22 6.87L211.22 7.45C211.22 8.47 210.55 9.38 209.23 9.38L206.46 9.38Z"></path></g><defs data-v-fde0c5aa=""><!----></defs><g data-v-fde0c5aa="" id="133beca5-9332-4041-a90f-7a2d6c4eb460" stroke="none" fill="#488eff" transform="matrix(0.4530378748789239,0,0,0.4530378748789239,127.34810452785146,109.95784417386128)"><path d="M13.02 56.93c0-.41.34-.75.75-.75h13.42c.41 0 .75.34.75.75s-.34.75-.75.75H13.77c-.42 0-.75-.34-.75-.75zm.75-3.3h18.02c.41 0 .75-.34.75-.75s-.34-.75-.75-.75H13.77a.749.749 0 1 0 0 1.5zm0-4.04H30.7c.41 0 .75-.34.75-.75s-.34-.75-.75-.75H13.77a.749.749 0 1 0 0 1.5zM30.7 64.27H13.77c-.41 0-.75.34-.75.75s.34.75.75.75H30.7c.41 0 .75-.34.75-.75s-.34-.75-.75-.75zm3.22-4.04H13.91c-.41 0-.75.34-.75.75s.34.75.75.75h20.01c.41 0 .75-.34.75-.75s-.34-.75-.75-.75zm32.1-2.55h13.42c.41 0 .75-.34.75-.75s-.34-.75-.75-.75H66.02c-.41 0-.75.34-.75.75s.34.75.75.75zm0-4.05h18.02c.41 0 .75-.34.75-.75s-.34-.75-.75-.75H66.02c-.41 0-.75.34-.75.75s.34.75.75.75zm0-4.04h16.93c.41 0 .75-.34.75-.75s-.34-.75-.75-.75H66.02c-.41 0-.75.34-.75.75s.34.75.75.75zm16.93 14.68H66.02c-.41 0-.75.34-.75.75s.34.75.75.75h16.93a.749.749 0 1 0 0-1.5zm3.22-4.04H66.16c-.41 0-.75.34-.75.75s.34.75.75.75h20.01c.41 0 .75-.34.75-.75s-.34-.75-.75-.75zm1.81-28.8c0 6.34-5.15 11.49-11.49 11.49S65 37.77 65 31.43s5.15-11.49 11.49-11.49 11.49 5.15 11.49 11.49zm-1.5 0c0-5.51-4.48-9.99-9.99-9.99s-9.99 4.48-9.99 9.99 4.48 9.99 9.99 9.99 9.99-4.48 9.99-9.99zm-6.85-3.15h4.16c.41 0 .75.34.75.75v4.8c0 .41-.34.75-.75.75h-4.16v4.16c0 .41-.34.75-.75.75h-4.79c-.41 0-.75-.34-.75-.75v-4.16h-4.16c-.41 0-.75-.34-.75-.75v-4.8c0-.41.34-.75.75-.75h4.16v-4.16c0-.41.34-.75.75-.75h4.79c.41 0 .75.34.75.75v4.16zm-.75 1.5c-.41 0-.75-.34-.75-.75v-4.16h-3.29v4.16c0 .41-.34.75-.75.75h-4.16v3.3h4.16c.41 0 .75.34.75.75v4.16h3.29v-4.16c0-.41.34-.75.75-.75h4.16v-3.3h-4.16zm-17.37.21a.753.753 0 0 0-.95.47l-2.26 6.76-2.57-12.02a.74.74 0 0 0-.73-.59c-.35 0-.66.25-.73.6l-2.33 11.23-2.47-14.5a.743.743 0 0 0-.74-.62.75.75 0 0 0-.74.62L45.45 36.5l-2.26-8.7a.736.736 0 0 0-.69-.56.749.749 0 0 0-.74.5l-3.13 8.83c-.14.39.07.82.46.96s.82-.07.96-.46l2.31-6.52 2.52 9.69c.09.34.41.58.76.56.35-.01.65-.27.71-.62l2.38-13.67 2.4 14.13c.06.36.37.62.73.62h.01c.35 0 .66-.25.73-.6L55.01 29l2.39 11.22c.07.33.35.57.69.59.34.02.65-.19.75-.51l3.13-9.36a.74.74 0 0 0-.46-.95zM48.5 58.67l-6.74.11c-.41.01-.74.35-.74.76.01.41.35.75.76.74l4.89-.08-6.25 6.26c-.29.29-.29.77 0 1.06.15.15.34.22.53.22s.38-.07.53-.22l6.25-6.26-.08 4.89c-.01.41.32.76.74.76h.01c.41 0 .74-.33.75-.74l.11-6.74c0-.2-.08-.4-.22-.54s-.32-.22-.54-.22zm11.36.82c-.41.01-.74.35-.74.76l.08 4.89-6.25-6.26c-.29-.29-.77-.29-1.06 0s-.29.77 0 1.06l6.25 6.26-4.89-.08c-.42 0-.76.32-.76.74-.01.41.32.76.74.76l6.74.11h.01a.75.75 0 0 0 .75-.76l-.11-6.74c0-.41-.35-.76-.76-.74zM95 15.72v56.32c0 1.52-1.24 2.76-2.76 2.76H62.11v7.45h9.76c.41 0 .75.34.75.75s-.34.75-.75.75H28.13c-.41 0-.75-.34-.75-.75s.34-.75.75-.75h9.76V74.8H7.76A2.76 2.76 0 0 1 5 72.04V15.72c0-1.52 1.24-2.76 2.76-2.76h84.48c1.52 0 2.76 1.24 2.76 2.76zM60.61 74.8H39.39v7.45h21.23V74.8zM93.5 15.72c0-.7-.57-1.26-1.26-1.26H7.76c-.7 0-1.26.57-1.26 1.26v56.32c0 .7.57 1.26 1.26 1.26h84.48c.7 0 1.26-.57 1.26-1.26V15.72zM76.4 85.54H23.6c-.41 0-.75.34-.75.75s.34.75.75.75h52.8c.41 0 .75-.34.75-.75s-.34-.75-.75-.75zM35.11 21.49v19.84c0 .41-.34.75-.75.75h-.29c-.08.03-.17.05-.27.05-.03 0-.06 0-.1-.01-.05-.01-.09-.03-.13-.04H14.15c-.04.01-.08.04-.13.04-.03 0-.07.01-.1.01-.09 0-.18-.02-.27-.05h-.29c-.41 0-.75-.34-.75-.75V21.49c0-.41.34-.75.75-.75h21c.42 0 .75.34.75.75zm-21 .75v15.35c.16-.25.34-.5.55-.74 1.49-1.7 3.94-2.56 7.27-2.56.41 0 .75.34.75.75s-.34.75-.75.75c-2.88 0-4.94.69-6.14 2.05-.84.96-1.07 2.04-1.12 2.73h18.39c-.06-.7-.29-1.8-1.13-2.75-1.2-1.35-3.26-2.04-6.13-2.04-.41 0-.75-.34-.75-.75s.34-.75.75-.75c3.33 0 5.77.86 7.27 2.56.21.24.39.49.55.74V22.24H24.2c2.99.2 5.38 2.9 5.38 6.21 0 2.09-.96 4.02-2.56 5.18a.72.72 0 0 1-.44.14c-.23 0-.46-.11-.61-.31-.24-.34-.17-.8.17-1.05 1.21-.88 1.94-2.36 1.94-3.96 0-2.6-1.9-4.72-4.23-4.72-2.33 0-4.23 2.12-4.23 4.72 0 1.6.72 3.09 1.94 3.96a.751.751 0 1 1-.88 1.22c-1.6-1.16-2.56-3.09-2.56-5.18 0-3.3 2.38-6 5.38-6.21h-9.39zm26.52 32.23c-.41 0-.75-.34-.75-.75V47.7c0-.41.34-.75.75-.75h18.74c.41 0 .75.34.75.75v6.03c0 .41-.34.75-.75.75H40.63zm.75-1.5h17.24v-4.53H41.38v4.53z"></path></g><!----></svg>