<?xml version="1.0" encoding="utf-8"?>
<!-- Generator: Adobe Illustrator 24.1.2, SVG Export Plug-In . SVG Version: 6.00 Build 0)  -->
<svg version="1.1" id="Layer_1" xmlns="http://www.w3.org/2000/svg" xmlns:xlink="http://www.w3.org/1999/xlink" x="0px" y="0px"
	 viewBox="0 0 420 252" style="enable-background:new 0 0 420 252;" xml:space="preserve">
<style type="text/css">
	.st0{fill:#1C1C1C;}
	.st1{fill:#FF1A1A;}
</style>
<g>
	<path class="st0" d="M8,189.3h4.56v20.21H8V189.3z"/>
	<path class="st0" d="M40.86,195.4c1.01,1.07,1.52,2.52,1.52,4.34v9.76h-4.42v-8.46c0-1-0.27-1.78-0.81-2.34
		c-0.54-0.56-1.27-0.84-2.19-0.84c-1.06,0.02-1.9,0.4-2.51,1.13c-0.62,0.73-0.92,1.67-0.92,2.83v7.68h-4.42v-8.46
		c0-0.98-0.26-1.76-0.79-2.32c-0.53-0.57-1.26-0.85-2.18-0.85c-1.06,0.02-1.9,0.4-2.53,1.13c-0.63,0.73-0.94,1.67-0.94,2.83v7.68
		h-4.45v-15.53h4.45v2.68c1.08-1.87,2.83-2.82,5.25-2.86c1.31,0,2.41,0.31,3.32,0.94c0.9,0.63,1.55,1.51,1.93,2.64
		c0.5-1.17,1.23-2.06,2.18-2.66c0.95-0.6,2.09-0.9,3.42-0.92C38.49,193.8,39.85,194.33,40.86,195.4z"/>
	<path class="st0" d="M54.5,209.5v-1.82c-0.52,0.65-1.19,1.15-2.02,1.5c-0.83,0.35-1.78,0.52-2.86,0.52c-1.64,0-2.93-0.45-3.9-1.34
		c-0.96-0.9-1.44-2.06-1.44-3.51c0-1.46,0.51-2.6,1.54-3.42c1.03-0.82,2.49-1.24,4.37-1.26h4.27v-0.29c0-0.83-0.27-1.47-0.82-1.92
		c-0.55-0.45-1.35-0.68-2.41-0.68c-1.44,0-2.98,0.45-4.62,1.36l-1.39-3.06c1.23-0.62,2.39-1.07,3.46-1.36
		c1.08-0.29,2.26-0.43,3.55-0.43c2.08,0,3.69,0.49,4.83,1.47c1.14,0.98,1.73,2.35,1.75,4.1l0.03,10.13H54.5z M53.26,205.86
		c0.67-0.44,1.08-1,1.21-1.67v-1.39h-3.49c-0.87,0-1.51,0.14-1.92,0.42c-0.41,0.28-0.62,0.73-0.62,1.34c0,0.6,0.22,1.07,0.65,1.43
		c0.43,0.36,1.02,0.53,1.78,0.53C51.79,206.53,52.59,206.31,53.26,205.86z"/>
	<path class="st0" d="M76.52,193.97v14.09c0,1.46-0.35,2.74-1.04,3.82c-0.69,1.09-1.66,1.92-2.92,2.51
		c-1.25,0.59-2.69,0.88-4.33,0.88c-1.27,0-2.48-0.18-3.62-0.55c-1.14-0.37-2.19-0.87-3.13-1.5l1.65-3.12
		c1.46,1.04,3.07,1.56,4.82,1.56c1.27,0,2.28-0.31,3.03-0.94c0.75-0.63,1.13-1.47,1.13-2.53v-1.76c-0.52,0.73-1.17,1.29-1.96,1.67
		c-0.79,0.39-1.69,0.58-2.71,0.58c-1.33,0-2.51-0.31-3.54-0.94c-1.03-0.63-1.83-1.51-2.4-2.64c-0.57-1.14-0.85-2.44-0.85-3.93
		c0-1.46,0.28-2.75,0.85-3.85c0.57-1.11,1.37-1.97,2.4-2.58c1.03-0.62,2.21-0.92,3.54-0.92c1,0,1.89,0.2,2.68,0.59
		c0.79,0.39,1.45,0.95,1.99,1.66v-2.11H76.52z M71.1,204.2c0.67-0.74,1.01-1.71,1.01-2.9c0-1.19-0.34-2.16-1.01-2.92
		c-0.67-0.75-1.55-1.13-2.63-1.13c-1.08,0-1.95,0.38-2.63,1.13c-0.67,0.75-1.02,1.72-1.04,2.92c0.02,1.19,0.36,2.16,1.02,2.9
		c0.66,0.74,1.54,1.11,2.64,1.11C69.55,205.32,70.42,204.95,71.1,204.2z"/>
	<path class="st0" d="M92.24,195.99c1.3,1.44,1.95,3.45,1.95,6.03c0,0.46-0.01,0.82-0.03,1.07H83.02c0.25,0.98,0.73,1.75,1.44,2.29
		c0.71,0.55,1.57,0.82,2.57,0.82c0.73,0,1.43-0.14,2.11-0.42c0.67-0.28,1.28-0.69,1.82-1.23l2.34,2.37
		c-0.79,0.89-1.75,1.56-2.87,2.04c-1.13,0.47-2.38,0.71-3.77,0.71c-1.64,0-3.07-0.33-4.29-0.98c-1.22-0.65-2.16-1.58-2.83-2.77
		c-0.66-1.19-1-2.57-1-4.13c0-1.58,0.34-2.97,1.01-4.17c0.67-1.2,1.62-2.14,2.83-2.8c1.21-0.66,2.6-1,4.16-1
		C89.04,193.83,90.94,194.55,92.24,195.99z M90,200.47c-0.04-1.02-0.37-1.84-0.98-2.45c-0.62-0.62-1.43-0.92-2.45-0.92
		c-0.96,0-1.77,0.3-2.41,0.91c-0.64,0.61-1.05,1.43-1.23,2.47H90z"/>
	<path class="st0" d="M102.5,189.3h5.08l6.29,12.41l6.23-12.41h5.05v20.21h-4.1v-13.65l-5.74,11.6h-2.94l-5.77-11.6v13.65h-4.1
		V189.3z"/>
	<path class="st0" d="M137.83,209.5v-1.82c-0.52,0.65-1.19,1.15-2.02,1.5c-0.83,0.35-1.78,0.52-2.86,0.52
		c-1.64,0-2.93-0.45-3.9-1.34c-0.96-0.9-1.44-2.06-1.44-3.51c0-1.46,0.51-2.6,1.54-3.42c1.03-0.82,2.49-1.24,4.37-1.26h4.27v-0.29
		c0-0.83-0.27-1.47-0.82-1.92c-0.55-0.45-1.35-0.68-2.41-0.68c-1.44,0-2.98,0.45-4.62,1.36l-1.39-3.06
		c1.23-0.62,2.39-1.07,3.46-1.36c1.08-0.29,2.26-0.43,3.55-0.43c2.08,0,3.69,0.49,4.83,1.47c1.14,0.98,1.73,2.35,1.75,4.1
		l0.03,10.13H137.83z M136.59,205.86c0.67-0.44,1.08-1,1.21-1.67v-1.39h-3.49c-0.87,0-1.51,0.14-1.92,0.42
		c-0.41,0.28-0.62,0.73-0.62,1.34c0,0.6,0.22,1.07,0.65,1.43c0.43,0.36,1.02,0.53,1.78,0.53
		C135.12,206.53,135.92,206.31,136.59,205.86z"/>
	<path class="st0" d="M159.26,195.42c1.03,1.08,1.54,2.52,1.54,4.33v9.76h-4.44v-8.46c0-0.98-0.27-1.76-0.82-2.32
		c-0.55-0.57-1.29-0.85-2.24-0.85c-1.1,0.02-1.96,0.4-2.6,1.14c-0.63,0.74-0.95,1.69-0.95,2.84v7.65h-4.45v-15.53h4.45v2.71
		c1.08-1.89,2.87-2.85,5.37-2.89C156.85,193.8,158.23,194.34,159.26,195.42z"/>
	<path class="st0" d="M172.93,209.5v-1.82c-0.52,0.65-1.19,1.15-2.02,1.5c-0.83,0.35-1.78,0.52-2.86,0.52
		c-1.64,0-2.93-0.45-3.9-1.34c-0.96-0.9-1.44-2.06-1.44-3.51c0-1.46,0.51-2.6,1.54-3.42c1.03-0.82,2.49-1.24,4.37-1.26h4.27v-0.29
		c0-0.83-0.27-1.47-0.82-1.92c-0.55-0.45-1.35-0.68-2.41-0.68c-1.44,0-2.98,0.45-4.62,1.36l-1.39-3.06
		c1.23-0.62,2.39-1.07,3.46-1.36c1.08-0.29,2.26-0.43,3.55-0.43c2.08,0,3.69,0.49,4.83,1.47c1.14,0.98,1.73,2.35,1.75,4.1
		l0.03,10.13H172.93z M171.69,205.86c0.67-0.44,1.08-1,1.21-1.67v-1.39h-3.49c-0.87,0-1.51,0.14-1.92,0.42
		c-0.41,0.28-0.62,0.73-0.62,1.34c0,0.6,0.22,1.07,0.65,1.43c0.43,0.36,1.02,0.53,1.78,0.53
		C170.22,206.53,171.01,206.31,171.69,205.86z"/>
	<path class="st0" d="M194.95,193.97v14.09c0,1.46-0.35,2.74-1.04,3.82c-0.69,1.09-1.66,1.92-2.92,2.51
		c-1.25,0.59-2.69,0.88-4.33,0.88c-1.27,0-2.48-0.18-3.62-0.55c-1.14-0.37-2.19-0.87-3.13-1.5l1.65-3.12
		c1.46,1.04,3.07,1.56,4.82,1.56c1.27,0,2.28-0.31,3.03-0.94c0.75-0.63,1.13-1.47,1.13-2.53v-1.76c-0.52,0.73-1.17,1.29-1.96,1.67
		c-0.79,0.39-1.69,0.58-2.71,0.58c-1.33,0-2.51-0.31-3.54-0.94c-1.03-0.63-1.83-1.51-2.4-2.64c-0.57-1.14-0.85-2.44-0.85-3.93
		c0-1.46,0.28-2.75,0.85-3.85c0.57-1.11,1.37-1.97,2.4-2.58c1.03-0.62,2.21-0.92,3.54-0.92c1,0,1.89,0.2,2.68,0.59
		c0.79,0.39,1.45,0.95,1.99,1.66v-2.11H194.95z M189.53,204.2c0.67-0.74,1.01-1.71,1.01-2.9c0-1.19-0.34-2.16-1.01-2.92
		c-0.67-0.75-1.55-1.13-2.63-1.13c-1.08,0-1.95,0.38-2.63,1.13c-0.67,0.75-1.02,1.72-1.04,2.92c0.02,1.19,0.36,2.16,1.02,2.9
		c0.66,0.74,1.54,1.11,2.64,1.11C187.98,205.32,188.85,204.95,189.53,204.2z"/>
	<path class="st0" d="M210.67,195.99c1.3,1.44,1.95,3.45,1.95,6.03c0,0.46-0.01,0.82-0.03,1.07h-11.14
		c0.25,0.98,0.73,1.75,1.44,2.29c0.71,0.55,1.57,0.82,2.57,0.82c0.73,0,1.43-0.14,2.11-0.42c0.67-0.28,1.28-0.69,1.82-1.23
		l2.34,2.37c-0.79,0.89-1.75,1.56-2.87,2.04c-1.13,0.47-2.38,0.71-3.77,0.71c-1.64,0-3.07-0.33-4.29-0.98
		c-1.22-0.65-2.16-1.58-2.83-2.77c-0.66-1.19-1-2.57-1-4.13c0-1.58,0.34-2.97,1.01-4.17c0.67-1.2,1.62-2.14,2.83-2.8
		c1.21-0.66,2.6-1,4.16-1C207.47,193.83,209.37,194.55,210.67,195.99z M208.43,200.47c-0.04-1.02-0.37-1.84-0.98-2.45
		s-1.43-0.92-2.45-0.92c-0.96,0-1.77,0.3-2.41,0.91c-0.64,0.61-1.05,1.43-1.23,2.47H208.43z"/>
	<path class="st0" d="M239.45,195.4c1.01,1.07,1.52,2.52,1.52,4.34v9.76h-4.42v-8.46c0-1-0.27-1.78-0.81-2.34
		c-0.54-0.56-1.27-0.84-2.19-0.84c-1.06,0.02-1.9,0.4-2.51,1.13c-0.62,0.73-0.92,1.67-0.92,2.83v7.68h-4.42v-8.46
		c0-0.98-0.27-1.76-0.79-2.32c-0.53-0.57-1.26-0.85-2.18-0.85c-1.06,0.02-1.9,0.4-2.53,1.13c-0.63,0.73-0.94,1.67-0.94,2.83v7.68
		h-4.45v-15.53h4.45v2.68c1.08-1.87,2.83-2.82,5.25-2.86c1.31,0,2.41,0.31,3.32,0.94c0.9,0.63,1.55,1.51,1.93,2.64
		c0.5-1.17,1.23-2.06,2.18-2.66c0.95-0.6,2.09-0.9,3.42-0.92C237.07,193.8,238.44,194.33,239.45,195.4z"/>
	<path class="st0" d="M256.45,195.99c1.3,1.44,1.95,3.45,1.95,6.03c0,0.46-0.01,0.82-0.03,1.07h-11.14
		c0.25,0.98,0.73,1.75,1.44,2.29c0.71,0.55,1.57,0.82,2.57,0.82c0.73,0,1.43-0.14,2.11-0.42c0.67-0.28,1.28-0.69,1.82-1.23
		l2.34,2.37c-0.79,0.89-1.75,1.56-2.87,2.04c-1.13,0.47-2.38,0.71-3.77,0.71c-1.64,0-3.07-0.33-4.29-0.98
		c-1.22-0.65-2.16-1.58-2.83-2.77c-0.66-1.19-1-2.57-1-4.13c0-1.58,0.34-2.97,1.01-4.17c0.67-1.2,1.62-2.14,2.83-2.8
		c1.21-0.66,2.6-1,4.16-1C253.25,193.83,255.15,194.55,256.45,195.99z M254.21,200.47c-0.04-1.02-0.37-1.84-0.98-2.45
		s-1.43-0.92-2.45-0.92c-0.96,0-1.77,0.3-2.41,0.91c-0.64,0.61-1.05,1.43-1.23,2.47H254.21z"/>
	<path class="st0" d="M274.54,195.42c1.03,1.08,1.54,2.52,1.54,4.33v9.76h-4.44v-8.46c0-0.98-0.27-1.76-0.82-2.32
		c-0.55-0.57-1.29-0.85-2.24-0.85c-1.1,0.02-1.96,0.4-2.6,1.14c-0.63,0.74-0.95,1.69-0.95,2.84v7.65h-4.45v-15.53h4.45v2.71
		c1.08-1.89,2.87-2.85,5.37-2.89C272.14,193.8,273.52,194.34,274.54,195.42z"/>
	<path class="st0" d="M288.82,208.64c-0.58,0.35-1.22,0.61-1.92,0.79c-0.7,0.18-1.41,0.27-2.12,0.27c-1.44,0-2.62-0.41-3.52-1.24
		c-0.9-0.83-1.36-2.01-1.36-3.55v-7.19h-2.16v-3.06h2.16v-4.27h4.42v4.27h4.21v3.09h-4.21v6.41c0,1.19,0.47,1.79,1.41,1.79
		c0.65,0,1.38-0.19,2.16-0.58L288.82,208.64z"/>
	<path class="st0" d="M306.9,193.41c-1.16-0.38-2.16-0.56-2.99-0.56c-0.79,0-1.41,0.14-1.88,0.43c-0.46,0.29-0.69,0.71-0.69,1.27
		c0,0.71,0.33,1.26,1,1.63c0.66,0.38,1.69,0.76,3.07,1.17c1.39,0.4,2.53,0.81,3.42,1.21c0.89,0.4,1.66,1.01,2.29,1.82
		c0.63,0.81,0.95,1.88,0.95,3.2c0,1.29-0.34,2.4-1.02,3.33c-0.68,0.93-1.62,1.64-2.81,2.12c-1.19,0.48-2.55,0.72-4.07,0.72
		c-1.64,0-3.24-0.29-4.82-0.87c-1.58-0.58-2.94-1.37-4.1-2.37l1.82-3.72c1.02,0.92,2.19,1.66,3.52,2.22
		c1.33,0.56,2.54,0.84,3.64,0.84c0.94,0,1.68-0.17,2.21-0.52c0.53-0.35,0.79-0.85,0.79-1.5c0-0.52-0.18-0.95-0.53-1.28
		c-0.36-0.34-0.81-0.61-1.36-0.82c-0.55-0.21-1.3-0.45-2.27-0.72c-1.39-0.39-2.52-0.77-3.39-1.15c-0.88-0.38-1.63-0.97-2.27-1.76
		c-0.64-0.79-0.95-1.84-0.95-3.15c0-1.21,0.33-2.28,0.98-3.19c0.65-0.91,1.57-1.62,2.74-2.11c1.17-0.49,2.54-0.74,4.1-0.74
		c1.39,0,2.75,0.2,4.1,0.61c1.35,0.4,2.54,0.94,3.58,1.62l-1.76,3.78C309.17,194.29,308.07,193.78,306.9,193.41z"/>
	<path class="st0" d="M316.33,215.3c-0.83,0-1.58-0.12-2.25-0.36c-0.67-0.24-1.33-0.62-1.96-1.14l1.88-3.2
		c0.67,0.56,1.35,0.84,2.02,0.84c0.94,0,1.63-0.46,2.05-1.39l0.43-0.87l-6.44-15.21h4.59l4.07,10.68l3.67-10.68h4.45l-6.81,17.26
		C320.93,213.95,319.04,215.3,316.33,215.3z"/>
	<path class="st0" d="M337.11,197.42c-0.83-0.26-1.57-0.39-2.22-0.39c-0.54,0-0.97,0.1-1.3,0.29c-0.33,0.19-0.49,0.48-0.49,0.87
		c0,0.42,0.22,0.75,0.66,0.98c0.44,0.23,1.16,0.49,2.16,0.78c1.1,0.33,2,0.65,2.71,0.97c0.71,0.32,1.33,0.79,1.85,1.41
		c0.52,0.63,0.78,1.45,0.78,2.47c0,1.54-0.59,2.74-1.78,3.59c-1.18,0.86-2.7,1.28-4.55,1.28c-1.27,0-2.49-0.19-3.67-0.56
		c-1.17-0.38-2.19-0.91-3.06-1.6l1.44-3c0.79,0.62,1.67,1.09,2.64,1.43s1.89,0.51,2.76,0.51c0.6,0,1.07-0.1,1.43-0.3
		c0.36-0.2,0.53-0.51,0.53-0.91c0-0.44-0.23-0.79-0.68-1.04c-0.45-0.25-1.18-0.52-2.18-0.81c-1.06-0.31-1.94-0.62-2.64-0.92
		c-0.7-0.31-1.3-0.77-1.8-1.4c-0.5-0.63-0.75-1.44-0.75-2.44c0-1.54,0.58-2.73,1.73-3.58c1.15-0.85,2.62-1.27,4.39-1.27
		c1.06,0,2.12,0.15,3.18,0.45c1.06,0.3,2.02,0.73,2.89,1.28l-1.53,3.03C338.77,198.05,337.93,197.68,337.11,197.42z"/>
	<path class="st0" d="M353.13,208.64c-0.58,0.35-1.22,0.61-1.92,0.79c-0.7,0.18-1.41,0.27-2.12,0.27c-1.44,0-2.62-0.41-3.52-1.24
		c-0.9-0.83-1.36-2.01-1.36-3.55v-7.19h-2.16v-3.06h2.16v-4.27h4.42v4.27h4.21v3.09h-4.21v6.41c0,1.19,0.47,1.79,1.41,1.79
		c0.65,0,1.38-0.19,2.16-0.58L353.13,208.64z"/>
	<path class="st0" d="M367.34,195.99c1.3,1.44,1.95,3.45,1.95,6.03c0,0.46-0.01,0.82-0.03,1.07h-11.14
		c0.25,0.98,0.73,1.75,1.44,2.29c0.71,0.55,1.57,0.82,2.57,0.82c0.73,0,1.43-0.14,2.11-0.42c0.67-0.28,1.28-0.69,1.82-1.23
		l2.34,2.37c-0.79,0.89-1.75,1.56-2.87,2.04c-1.13,0.47-2.38,0.71-3.77,0.71c-1.64,0-3.07-0.33-4.29-0.98
		c-1.22-0.65-2.16-1.58-2.83-2.77c-0.66-1.19-1-2.57-1-4.13c0-1.58,0.34-2.97,1.01-4.17c0.67-1.2,1.62-2.14,2.83-2.8
		c1.21-0.66,2.6-1,4.16-1C364.14,193.83,366.04,194.55,367.34,195.99z M365.11,200.47c-0.04-1.02-0.37-1.84-0.98-2.45
		s-1.43-0.92-2.45-0.92c-0.96,0-1.77,0.3-2.41,0.91c-0.64,0.61-1.05,1.43-1.23,2.47H365.11z"/>
	<path class="st0" d="M396.12,195.4c1.01,1.07,1.52,2.52,1.52,4.34v9.76h-4.42v-8.46c0-1-0.27-1.78-0.81-2.34
		c-0.54-0.56-1.27-0.84-2.19-0.84c-1.06,0.02-1.9,0.4-2.51,1.13c-0.62,0.73-0.92,1.67-0.92,2.83v7.68h-4.42v-8.46
		c0-0.98-0.27-1.76-0.79-2.32c-0.53-0.57-1.26-0.85-2.18-0.85c-1.06,0.02-1.9,0.4-2.53,1.13c-0.63,0.73-0.94,1.67-0.94,2.83v7.68
		h-4.45v-15.53h4.45v2.68c1.08-1.87,2.83-2.82,5.25-2.86c1.31,0,2.41,0.31,3.32,0.94c0.9,0.63,1.55,1.51,1.93,2.64
		c0.5-1.17,1.23-2.06,2.18-2.66c0.95-0.6,2.09-0.9,3.42-0.92C393.75,193.8,395.11,194.33,396.12,195.4z"/>
</g>
<g>
	<path class="st1" d="M9.04,48.5h98.29v25.95H41.57v23.28h59.37v25.77l-59.37,0.18v23.46h67.54v25.95H9.04V48.5z"/>
	<path class="st1" d="M124.57,48.5h35.37l36.08,72.88l35.9-72.88h35.37v124.6H238.5l-0.18-78.92l-31.82,66.48h-20.97l-31.99-66.48
		v78.92h-28.97V48.5z"/>
	<path class="st1" d="M361.85,173.1l-18.13-34.48h-0.71h-23.46v34.48h-32.53V48.5h55.99c16.47,0,29.24,3.82,38.3,11.47
		c9.06,7.64,13.6,18.4,13.6,32.26c0,9.36-1.9,17.45-5.69,24.26c-3.79,6.82-9.3,12.12-16.53,15.91l25.95,40.7H361.85z M319.55,112.67
		h23.64c6.64,0,11.76-1.66,15.38-4.98c3.61-3.32,5.42-8.11,5.42-14.4c0-6.04-1.81-10.69-5.42-13.95c-3.62-3.26-8.74-4.89-15.38-4.89
		h-23.64V112.67z"/>
</g>
<g>
	<path class="st0" d="M408.38,201.18c-4.23-0.01-7.61-3.41-7.61-7.68c0-4.17,3.45-7.57,7.67-7.56c4.17,0.01,7.57,3.45,7.56,7.63
		C415.99,197.79,412.58,201.19,408.38,201.18z M408.38,199.76c3.41,0,6.19-2.77,6.2-6.18c0.01-3.42-2.78-6.21-6.21-6.2
		c-3.4,0.01-6.18,2.78-6.18,6.19C402.19,196.98,404.98,199.76,408.38,199.76z"/>
	<path class="st0" d="M409.81,194.52c0.59,0.82,1.16,1.61,1.77,2.47c-0.51,0-0.96,0.01-1.41-0.01c-0.07,0-0.15-0.12-0.21-0.2
		c-0.45-0.63-0.89-1.27-1.36-1.89c-0.08-0.1-0.24-0.19-0.37-0.19c-0.42-0.02-0.83-0.01-1.28-0.01c0,0.78,0,1.53,0,2.29
		c-0.39,0-0.75,0-1.14,0c0-2.26,0-4.52,0-6.79c0.01-0.01,0.03-0.03,0.04-0.03c1.21,0.03,2.43-0.01,3.64,0.1
		c1.11,0.11,1.64,0.73,1.75,1.73c0.14,1.24-0.29,2.04-1.33,2.48C409.91,194.48,409.88,194.49,409.81,194.52z M406.99,193.67
		c0.77-0.04,1.52-0.05,2.26-0.12c0.46-0.05,0.75-0.36,0.81-0.83c0.03-0.22,0.03-0.45,0.01-0.67c-0.04-0.41-0.28-0.71-0.68-0.75
		c-0.79-0.08-1.58-0.11-2.39-0.15C406.99,192.02,406.99,192.81,406.99,193.67z"/>
</g>
</svg>
